<?xml version="1.0" encoding="UTF-8" standalone="no"?>
<svg
   xmlns:dc="http://purl.org/dc/elements/1.1/"
   xmlns:cc="http://creativecommons.org/ns#"
   xmlns:rdf="http://www.w3.org/1999/02/22-rdf-syntax-ns#"
   xmlns:svg="http://www.w3.org/2000/svg"
   xmlns="http://www.w3.org/2000/svg"
   xmlns:sodipodi="http://sodipodi.sourceforge.net/DTD/sodipodi-0.dtd"
   xmlns:inkscape="http://www.inkscape.org/namespaces/inkscape"
   width="48"
   height="48"
   viewBox="0 0 12.7 12.7"
   version="1.1"
   id="svg8"
   sodipodi:docname="app_icon_bg.svg"
   inkscape:version="1.0.1 (3bc2e813f5, 2020-09-07)">
  <defs
     id="defs2">
    <rect
       x="-0.083521728"
       y="0.066817382"
       width="13.163024"
       height="12.461442"
       id="rect12" />
  </defs>
  <sodipodi:namedview
     id="base"
     pagecolor="#ffffff"
     bordercolor="#666666"
     borderopacity="1.0"
     inkscape:pageopacity="0.0"
     inkscape:pageshadow="2"
     inkscape:zoom="11.313709"
     inkscape:cx="20.760873"
     inkscape:cy="26.503857"
     inkscape:document-units="mm"
     inkscape:current-layer="layer1"
     inkscape:document-rotation="0"
     showgrid="false"
     units="px"
     inkscape:window-width="1920"
     inkscape:window-height="1017"
     inkscape:window-x="1912"
     inkscape:window-y="-8"
     inkscape:window-maximized="1" />
  <metadata
     id="metadata5">
    <rdf:RDF>
      <cc:Work
         rdf:about="">
        <dc:format>image/svg+xml</dc:format>
        <dc:type
           rdf:resource="http://purl.org/dc/dcmitype/StillImage" />
        <dc:title></dc:title>
      </cc:Work>
    </rdf:RDF>
  </metadata>
  <g
     inkscape:label="Warstwa 1"
     inkscape:groupmode="layer"
     id="layer1">
    <text
       xml:space="preserve"
       id="text10"
       style="font-style:normal;font-weight:normal;font-size:5.29167px;line-height:1.25;font-family:sans-serif;white-space:pre;shape-inside:url(#rect12);fill:#000000;fill-opacity:1;stroke:none;" />
    <rect
       id="rect162"
       width="6.3499389"
       height="6.3499389"
       x="0.0010333061"
       y="0.0010334253"
       style="fill:#fb8c00;fill-opacity:1;stroke-width:2.38705" />
    <rect
       id="rect162-2"
       width="6.3499393"
       height="6.3499393"
       x="0.0010328293"
       y="6.3509722"
       style="fill:#aaaaaa;fill-opacity:1;stroke-width:2.38705" />
    <rect
       id="rect162-7"
       width="6.3499389"
       height="6.3499389"
       x="6.3509722"
       y="0.0010334253"
       style="fill:#555555;fill-opacity:1;stroke-width:2.38705" />
    <rect
       id="rect162-3"
       width="6.3499389"
       height="6.3499389"
       x="6.3509712"
       y="6.3509722"
       style="fill:#333333;fill-opacity:1;stroke-width:2.38705" />
  </g>
  <g
     inkscape:groupmode="layer"
     id="layer2"
     inkscape:label="Warstwa 2"
     style="display:none">
    <path
       id="path90"
       d="M 4.4289223,1.6438445 C 4.2545107,2.0199233 4.1264005,2.4156162 4.0024322,2.810529 3.8364786,3.3996862 3.7047203,3.9990848 3.6210493,4.6056613 c -0.017861,0.1294692 -0.031205,0.2595198 -0.046807,0.3892795 -0.04028,0.3421887 -0.05927,0.6862305 -0.079055,1.0300253 0,0 0.2483303,-0.1251239 0.2483303,-0.1251239 v 0 C 3.7545947,5.559051 3.7676051,5.218112 3.8083303,4.8792264 3.8244202,4.7495637 3.8383117,4.6196108 3.8566,4.4902394 3.9424753,3.882529 4.0772275,3.2820951 4.2507717,2.6935767 4.3834489,2.2905188 4.5194064,1.8814812 4.7292371,1.51074 c 0,0 -0.3003156,0.1331048 -0.3003148,0.1331045 z"
       style="fill:#333333;fill-opacity:1;stroke-width:0.352995" />
    <path
       id="path92"
       d="m 1.4253579,3.342356 c 0.4715051,0.078895 0.9364536,0.1948554 1.4023396,0.3012317 0.7016077,0.1574352 1.4009907,0.3257874 2.1047009,0.4737885 0.3256516,0.06849 0.5212221,0.1035693 0.8408046,0.1635334 0,0 0.2133405,-0.1494394 0.2133405,-0.1494394 v 0 C 5.613375,4.071125 5.5136732,4.0580127 5.1273907,3.9818884 4.4249798,3.843465 3.728578,3.6756328 3.0345019,3.5007592 2.5880992,3.3849051 2.1417956,3.268698 1.6956922,3.1517479 c 0,0 -0.2703343,0.1906081 -0.2703343,0.1906081 z"
       style="fill:#333333;fill-opacity:1;stroke-width:0.352995" />
    <path
       id="path104"
       d="m 1.6697482,7.9029512 c 0.45741,0.3490705 0.9253678,0.6829304 1.3915387,1.0193222 0.135623,0.097656 0.2707765,0.1960077 0.4068683,0.2929679 0.2204684,0.1570754 0.6969898,0.491577 0.9178568,0.6437354 0.3371437,0.2322633 0.5391435,0.3713053 0.8852568,0.5823423 0.1279305,0.078 0.2587933,0.150748 0.38819,0.226121 0,0 0.2140983,-0.144103 0.2140983,-0.144103 v 0 C 5.7411751,10.450407 5.6069156,10.380988 5.4764137,10.304538 4.7077895,9.8542669 3.9943651,9.3115378 3.2776622,8.7803931 2.8263196,8.4395327 2.3684109,8.1045908 1.9492558,7.7214844 c 0,0 -0.2795076,0.1814668 -0.2795076,0.1814668 z"
       style="fill:#555555;fill-opacity:1;stroke-width:0.363838" />
    <path
       id="path106"
       d="m 2.26703,10.915214 c 0.025268,-0.0273 0.050999,-0.05413 0.075805,-0.08188 C 2.4948453,10.663301 2.6413122,10.488087 2.7935521,10.318245 2.9132084,10.184755 3.151221,9.9264672 3.2657432,9.8017541 3.6853577,9.3562208 4.0957754,8.9013993 4.5210021,8.4614992 4.7337019,8.2414611 4.9377459,8.0389293 5.1536816,7.8227841 5.2472126,7.7301991 5.3407359,7.6376125 5.4342627,7.5450267 c 0,0 -0.2704019,0.1149996 -0.2704019,0.1149996 v 0 C 5.0728335,7.7515899 4.9818071,7.8431526 4.890779,7.9347153 4.6764908,8.1511651 4.4770333,8.351188 4.2653788,8.5710277 3.8373162,9.0156436 3.4214876,9.4726137 2.9945244,9.9183496 2.86001,10.061601 2.6412421,10.293487 2.5040682,10.443434 2.3165075,10.64846 2.1373596,10.86233 1.9382032,11.055721 c 0,0 0.3288285,-0.140507 0.3288285,-0.140507 z"
       style="fill:#555555;fill-opacity:1;stroke-width:0.390771" />
    <path
       id="path108"
       d="m 7.2080141,3.8992627 c 0.6459844,0.077313 1.2934981,0.093462 1.9405447,0.1140826 0.6125146,0.015492 1.2250342,0.029889 1.8374922,0.05198 0,0 0.209036,-0.2830404 0.209036,-0.2830404 v 0 C 10.572825,3.7943959 9.9504784,3.7943476 9.3282807,3.7708128 8.7010123,3.7435559 8.0705232,3.730902 7.4476567,3.5774497 c 0,0 -0.2396426,0.3218103 -0.2396426,0.3218103 z"
       style="fill:#aaaaaa;fill-opacity:1;stroke-width:0.440959" />
    <path
       id="path144"
       d="m 8.6126339,7.6103503 c 0.1209163,-0.023463 0.245817,-0.036782 0.3645042,0.0077 0.030289,0.011343 0.058551,0.028399 0.087829,0.04259 0.025243,0.019768 0.052641,0.03655 0.075728,0.059296 0.069441,0.068432 0.1155838,0.1620273 0.1269057,0.2642303 0.00976,0.088071 -0.00291,0.123213 -0.018185,0.2082542 -0.030341,0.074608 -0.031761,0.098953 -0.08661,0.1550011 -0.019255,0.019683 -0.086696,0.065326 -0.064351,0.050108 0.2753947,-0.1874862 0.1893561,-0.1068151 0.085034,-0.1022131 -0.027715,0.0012 -0.055284,-0.00504 -0.082922,-0.00761 C 8.9651216,8.2498857 8.8319321,8.1768568 8.7489019,8.0483155 8.7367383,8.0294883 8.7276797,8.0084543 8.7170728,7.9885237 8.7106574,7.967618 8.7016073,7.9474821 8.697912,7.9257979 8.6780414,7.8093827 8.7399887,7.7076527 8.7928681,7.613866 c 0,0 -0.2511256,0.1227109 -0.2511256,0.1227109 v 0 C 8.4694792,7.8753752 8.413924,7.983393 8.4763653,8.142222 c 0.011728,0.021163 0.021855,0.043523 0.035183,0.063504 0.0881,0.1321287 0.2264947,0.2090267 0.3650869,0.2568763 0.028732,0.00479 0.057157,0.013267 0.086195,0.014285 0.1520534,0.00539 0.25653,-0.1043859 0.3915055,-0.1920019 0.07577,-0.049185 0.1148964,-0.1354049 0.1399464,-0.2239712 0.013028,-0.089609 0.024666,-0.1275225 0.01276,-0.2196412 C 9.493002,7.7326375 9.4440221,7.632994 9.3708012,7.5589573 9.3467305,7.5346213 9.3181521,7.5163248 9.2918233,7.4950081 9.2618846,7.4792264 9.2330067,7.4607213 9.2020118,7.4476668 9.0849765,7.3983772 8.9623612,7.4036081 8.8405143,7.4215615 c 0,0 -0.2278684,0.1888303 -0.2278684,0.1888303 z"
       style="fill:#fb8c00;fill-opacity:1;stroke-width:0.321858" />
    <path
       id="path154"
       d="m 9.0246414,10.024393 c 0.084513,-0.0045 0.1719199,-0.0013 0.2500974,0.03911 0.016766,0.0086 0.031786,0.02097 0.047671,0.03146 0.069423,0.06514 0.1331057,0.158926 0.1368409,0.264019 7.057e-4,0.01951 -0.00325,0.03889 -0.00491,0.05835 -0.012722,0.05922 -0.033707,0.113658 -0.071884,0.158545 -0.012113,0.01423 -0.055268,0.04821 -0.039733,0.03884 0.2658315,-0.160351 0.205177,-0.130068 0.080047,-0.08703 -0.1125879,0.02776 -0.2272231,0.04356 -0.3426221,0.0451 -0.060408,8.11e-4 -0.1316199,-0.0016 -0.1913356,-0.01652 -0.02508,-0.0062 -0.0488,-0.01792 -0.073196,-0.02687 -0.083118,-0.04794 -0.1559429,-0.130532 -0.1407049,-0.242782 0.00274,-0.02014 0.010521,-0.03905 0.015791,-0.05858 0.041529,-0.102715 0.119646,-0.169275 0.199472,-0.2339111 0,0 -0.2558628,0.1123901 -0.2558628,0.1123901 v 0 c -0.081014,0.07071 -0.1588675,0.144068 -0.1956391,0.254448 -0.00436,0.0223 -0.011428,0.04417 -0.013044,0.06691 -0.00883,0.124539 0.069218,0.216752 0.1619067,0.271717 0.02597,0.01009 0.051161,0.02306 0.077926,0.03017 0.063026,0.01671 0.1336181,0.01858 0.1977356,0.01819 0.1153889,-7.12e-4 0.2300001,-0.01462 0.3434762,-0.03726 0.03064,-0.0082 0.063624,-0.0091 0.091916,-0.02442 0.121307,-0.06563 0.3002948,-0.134004 0.370826,-0.285085 0.022951,-0.04916 0.023906,-0.06894 0.03508,-0.122278 5.824e-4,-0.02171 0.00343,-0.04348 0.00167,-0.06512 C 9.6972657,10.100809 9.6305907,10.001673 9.557264,9.9281282 9.540267,9.9159532 9.524326,9.9018022 9.506281,9.8916112 9.429714,9.8483992 9.3415058,9.8383752 9.2570052,9.8382642 c 0,0 -0.2324738,0.1861038 -0.2324738,0.1861038 z"
       style="fill:#fb8c00;fill-opacity:1;stroke-width:0.321858" />
    <path
       id="path156"
       d="m 6.8614668,9.2775591 c 0.3587431,-0.014807 0.7177387,-0.00701 1.0765144,0.0012 0.6725758,0.016321 1.3451935,0.030024 2.0178459,0.041828 0.3816779,0.00701 0.7634149,0.00796 1.1451309,0.010547 0,0 0.204919,-0.1640152 0.204919,-0.1640152 v 0 c -0.386323,0.0018 -0.772649,0.00146 -1.158975,8.144e-4 C 9.4739163,9.1650183 8.8008541,9.156579 8.1283245,9.1273163 7.7833591,9.1128087 7.4383757,9.0998924 7.0932409,9.0919798 c 0,0 -0.2317741,0.1855437 -0.2317741,0.1855437 z"
       style="fill:#fb8c00;fill-opacity:1;stroke-width:0.321858" />
  </g>
</svg>
