<?xml version="1.0" encoding="UTF-8" standalone="no"?>
<svg
   xmlns:dc="http://purl.org/dc/elements/1.1/"
   xmlns:cc="http://creativecommons.org/ns#"
   xmlns:rdf="http://www.w3.org/1999/02/22-rdf-syntax-ns#"
   xmlns:svg="http://www.w3.org/2000/svg"
   xmlns="http://www.w3.org/2000/svg"
   xmlns:sodipodi="http://sodipodi.sourceforge.net/DTD/sodipodi-0.dtd"
   xmlns:inkscape="http://www.inkscape.org/namespaces/inkscape"
   width="48"
   height="48"
   viewBox="0 0 12.7 12.7"
   version="1.1"
   id="svg8"
   sodipodi:docname="app_icon_fg.svg"
   inkscape:version="1.0.1 (3bc2e813f5, 2020-09-07)">
  <defs
     id="defs2">
    <rect
       x="-0.083521728"
       y="0.066817382"
       width="13.163024"
       height="12.461442"
       id="rect12" />
  </defs>
  <sodipodi:namedview
     id="base"
     pagecolor="#ffffff"
     bordercolor="#666666"
     borderopacity="1.0"
     inkscape:pageopacity="0.0"
     inkscape:pageshadow="2"
     inkscape:zoom="11.313709"
     inkscape:cx="20.760873"
     inkscape:cy="26.503857"
     inkscape:document-units="mm"
     inkscape:current-layer="layer2"
     inkscape:document-rotation="0"
     showgrid="false"
     units="px"
     inkscape:window-width="1920"
     inkscape:window-height="1017"
     inkscape:window-x="1912"
     inkscape:window-y="-8"
     inkscape:window-maximized="1" />
  <metadata
     id="metadata5">
    <rdf:RDF>
      <cc:Work
         rdf:about="">
        <dc:format>image/svg+xml</dc:format>
        <dc:type
           rdf:resource="http://purl.org/dc/dcmitype/StillImage" />
        <dc:title></dc:title>
      </cc:Work>
    </rdf:RDF>
  </metadata>
  <g
     inkscape:label="Warstwa 1"
     inkscape:groupmode="layer"
     id="layer1"
     style="display:none">
    <text
       xml:space="preserve"
       id="text10"
       style="font-style:normal;font-weight:normal;font-size:5.29167px;line-height:1.25;font-family:sans-serif;white-space:pre;shape-inside:url(#rect12);fill:#000000;fill-opacity:1;stroke:none;" />
    <rect
       id="rect162"
       width="6.3499389"
       height="6.3499389"
       x="0.0010333061"
       y="0.0010334253"
       style="fill:#fb8c00;fill-opacity:1;stroke-width:2.38705" />
    <rect
       id="rect162-2"
       width="6.3499393"
       height="6.3499393"
       x="0.0010328293"
       y="6.3509722"
       style="fill:#aaaaaa;fill-opacity:1;stroke-width:2.38705" />
    <rect
       id="rect162-7"
       width="6.3499389"
       height="6.3499389"
       x="6.3509722"
       y="0.0010334253"
       style="fill:#555555;fill-opacity:1;stroke-width:2.38705" />
    <rect
       id="rect162-3"
       width="6.3499389"
       height="6.3499389"
       x="6.3509712"
       y="6.3509722"
       style="fill:#333333;fill-opacity:1;stroke-width:2.38705" />
  </g>
  <g
     inkscape:groupmode="layer"
     id="layer2"
     inkscape:label="Warstwa 2">
    <path
       id="path90"
       d="M 4.0409912,0.80106166 C 3.8370942,1.2407189 3.6873262,1.7033063 3.5424002,2.1649815 c -0.194009,0.6887579 -0.348042,1.3894888 -0.445858,2.0986108 -0.02088,0.1513568 -0.03648,0.3033933 -0.05472,0.4550897 -0.04709,0.4000379 -0.06929,0.8022421 -0.09242,1.2041576 0,0 0.290312,-0.1462769 0.290312,-0.1462769 v 0 c 0.01295,-0.3984041 0.02816,-0.796981 0.07577,-1.1931574 0.01881,-0.151583 0.03505,-0.3035052 0.05643,-0.4547477 0.100393,-0.7104477 0.257926,-1.4123887 0.460809,-2.1003999 0.155107,-0.4711974 0.314049,-0.9493854 0.559353,-1.38280274 0,0 -0.351086,0.155607 -0.351085,0.1556067 z"
       style="stroke-width:0.412671;fill:#333333;fill-opacity:1" />
    <path
       id="path92"
       d="M 0.52965521,2.7867173 C 1.0808712,2.8789503 1.6244222,3.0145142 2.1690692,3.138874 c 0.820219,0.1840507 1.637837,0.3808639 2.460514,0.5538856 0.380705,0.080069 0.609338,0.1210783 0.982948,0.1911797 0,0 0.249407,-0.174703 0.249407,-0.174703 v 0 C 5.4256832,3.6386893 5.3091262,3.6233603 4.8575402,3.5343667 4.0363822,3.3725419 3.2222492,3.1763367 2.4108352,2.9718996 1.8889652,2.8364596 1.3672112,2.7006069 0.84569121,2.5638857 c 0,0 -0.316036,0.2228316 -0.316036,0.2228316 z"
       style="stroke-width:0.412671;fill:#333333;fill-opacity:1" />
    <path
       id="path104"
       d="m 0.81536125,8.1183101 c 0.53473805,0.408083 1.08180705,0.798384 1.62678705,1.191645 0.158551,0.114165 0.316553,0.229144 0.475652,0.342496 0.25774,0.18363 0.8148204,0.5746809 1.0730264,0.7525629 0.39414,0.271529 0.630289,0.434077 1.034915,0.680791 0.149558,0.09119 0.302544,0.176233 0.453816,0.264348 0,0 0.250293,-0.168464 0.250293,-0.168464 v 0 C 5.5750887,11.096429 5.4181317,11.015275 5.2655677,10.925901 4.3670027,10.399508 3.5329693,9.7650271 2.6951033,9.1440891 c -0.527645,-0.398485 -1.062966,-0.790051 -1.552982,-1.237924 0,0 -0.32676005,0.212145 -0.32676005,0.212145 z"
       style="fill:#555555;fill-opacity:1;stroke-width:0.425347" />
    <path
       id="path106"
       d="m 1.5136173,11.639814 c 0.02954,-0.03191 0.05962,-0.06328 0.08862,-0.09572 0.177709,-0.198777 0.348937,-0.403613 0.526914,-0.602168 0.139885,-0.156059 0.418135,-0.458012 0.552018,-0.603808 0.490553,-0.5208539 0.9703544,-1.0525659 1.4674684,-1.5668339 0.248658,-0.257237 0.487197,-0.494008 0.739638,-0.746694 0.109343,-0.108237 0.218677,-0.216476 0.328015,-0.324714 0,0 -0.316115,0.134441 -0.316115,0.134441 v 0 c -0.106416,0.107043 -0.212831,0.214085 -0.319248,0.321127 -0.250515,0.253042 -0.483692,0.48688 -0.731128,0.743885 -0.5004294,0.519781 -0.9865564,1.054005 -1.4857004,1.5750949 -0.157255,0.16747 -0.413007,0.438557 -0.573371,0.613854 -0.219269,0.239686 -0.428703,0.489712 -0.661528,0.715798 0,0 0.384419,-0.164261 0.384419,-0.164262 z"
       style="fill:#555554;fill-opacity:1;stroke-width:0.456834" />
    <path
       id="path108"
       d="m 7.2899062,3.4377726 c 0.7551922,0.090383 1.5121721,0.1092618 2.268606,0.1333689 0.7160638,0.018112 1.4321338,0.034943 2.1481318,0.060768 0,0 0.244374,-0.3308903 0.244374,-0.3308903 v 0 C 11.223559,3.3151766 10.496002,3.3151206 9.7686172,3.2876074 9.0353051,3.2557425 8.2982278,3.2409489 7.5700619,3.061555 c 0,0 -0.2801557,0.3762144 -0.2801557,0.3762144 z"
       style="fill:#aaaaaa;fill-opacity:1;stroke-width:0.515506" />
    <path
       id="path144"
       d="m 8.9319858,7.7762431 c 0.141358,-0.02743 0.287374,-0.043 0.426126,0.009 0.03541,0.01326 0.06845,0.0332 0.102677,0.04979 0.02951,0.02311 0.06154,0.04273 0.08853,0.06932 0.08118,0.08 0.135124,0.189419 0.14836,0.3089 0.01141,0.10296 -0.0034,0.144043 -0.02126,0.243461 -0.03547,0.08722 -0.03713,0.115681 -0.101251,0.181205 -0.02251,0.02301 -0.101352,0.07637 -0.07523,0.05858 0.321952,-0.219182 0.221368,-0.124873 0.09941,-0.119493 -0.0324,0.0014 -0.06463,-0.0059 -0.09694,-0.0089 -0.158344,-0.04421 -0.31405,-0.129585 -0.411117,-0.279857 -0.01422,-0.02201 -0.02481,-0.0466 -0.03721,-0.0699 -0.0075,-0.02444 -0.01808,-0.04798 -0.0224,-0.07333 -0.02323,-0.136096 0.04919,-0.255024 0.111009,-0.364666 0,0 -0.29358,0.143456 -0.29358,0.143456 v 0 c -0.08448,0.162263 -0.149427,0.288542 -0.07643,0.474222 0.01371,0.02474 0.02555,0.05088 0.04113,0.07424 0.102994,0.154466 0.264785,0.244364 0.426807,0.300303 0.03359,0.0056 0.06682,0.01551 0.100767,0.0167 0.177759,0.0063 0.299898,-0.122033 0.457692,-0.224461 0.08858,-0.0575 0.13432,-0.158296 0.163605,-0.261835 0.01523,-0.104757 0.02884,-0.149081 0.01492,-0.256773 -0.01641,-0.127001 -0.07367,-0.24349 -0.159272,-0.330043 -0.02814,-0.02845 -0.06155,-0.04984 -0.09233,-0.07476 -0.035,-0.01845 -0.06876,-0.040083 -0.104995,-0.055345 -0.136821,-0.057622 -0.280165,-0.051507 -0.422611,-0.030519 0,0 -0.266391,0.2207533 -0.266391,0.2207533 z"
       style="fill:#fb8c00;fill-opacity:1;stroke-width:0.376271" />
    <path
       id="path154"
       d="m 9.4136458,10.598396 c 0.0988,-0.0053 0.200984,-0.0015 0.292378,0.04572 0.0196,0.01013 0.03716,0.02452 0.05573,0.03678 0.08116,0.07616 0.155608,0.185793 0.159974,0.308653 8.25e-4,0.02281 -0.0038,0.04547 -0.0057,0.06821 -0.01487,0.06923 -0.03941,0.132872 -0.08404,0.185348 -0.01416,0.01664 -0.06461,0.05636 -0.04645,0.0454 0.3107722,-0.187459 0.2398632,-0.152056 0.09358,-0.101743 -0.131621,0.03246 -0.265636,0.05093 -0.400544,0.05273 -0.07062,9.48e-4 -0.153871,-0.0018 -0.223682,-0.01931 -0.02932,-0.0073 -0.05705,-0.02095 -0.08557,-0.03142 -0.09717,-0.05605 -0.182306,-0.152599 -0.164492,-0.283826 0.0032,-0.02355 0.0123,-0.04565 0.01846,-0.06848 0.04855,-0.120079 0.139873,-0.197891 0.233194,-0.273455 0,0 -0.299118,0.131391 -0.299118,0.131391 v 0 c -0.09471,0.08266 -0.185725,0.168423 -0.228713,0.297463 -0.0051,0.02607 -0.01336,0.05164 -0.01525,0.07823 -0.01032,0.145594 0.08092,0.253397 0.189278,0.317654 0.03036,0.01179 0.05981,0.02696 0.0911,0.03526 0.07368,0.01954 0.156207,0.02172 0.231164,0.02127 0.134896,-8.31e-4 0.268883,-0.0171 0.401543,-0.04356 0.03582,-0.0095 0.07438,-0.0106 0.107455,-0.02854 0.141814,-0.07672 0.3510612,-0.156658 0.4335162,-0.333281 0.02683,-0.05747 0.02795,-0.0806 0.04101,-0.142949 6.81e-4,-0.02538 0.004,-0.05083 0.002,-0.07612 -0.01043,-0.132076 -0.08835,-0.247972 -0.174074,-0.33395 -0.01987,-0.01423 -0.03851,-0.03078 -0.0596,-0.04269 -0.08951,-0.05052 -0.192631,-0.06224 -0.291417,-0.06237 0,0 -0.271775,0.217566 -0.271775,0.217566 z"
       style="fill:#fb8c00;fill-opacity:1;stroke-width:0.376271" />
    <path
       id="path156"
       d="m 6.8847728,9.7253041 c 0.419391,-0.01731 0.839077,-0.0082 1.258506,0.0014 0.786279,0.01908 1.572607,0.0351 2.3589752,0.0489 0.446204,0.0082 0.892475,0.0093 1.338722,0.01233 0,0 0.239563,-0.191743 0.239563,-0.191743 v 0 c -0.451634,0.0021 -0.90327,0.0017 -1.354907,9.52e-4 -0.7867582,-0.0034 -1.5736062,-0.01327 -2.3598312,-0.04748 -0.403284,-0.01696 -0.806589,-0.03206 -1.210071,-0.04131 0,0 -0.270957,0.216911 -0.270957,0.216911 z"
       style="fill:#fb8c00;fill-opacity:1;stroke-width:0.376271" />
  </g>
</svg>
